<?xml version="1.0" encoding="iso-8859-1"?>
<!-- Uploaded to: SVG Repo, www.svgrepo.com, Generator: SVG Repo Mixer Tools -->
<!DOCTYPE svg PUBLIC "-//W3C//DTD SVG 1.1//EN" "http://www.w3.org/Graphics/SVG/1.1/DTD/svg11.dtd">
<svg fill="#000000" version="1.1" id="Capa_1" xmlns="http://www.w3.org/2000/svg" xmlns:xlink="http://www.w3.org/1999/xlink" 
	 width="800px" height="800px" viewBox="0 0 94.041 94.041"
	 xml:space="preserve">
<g>
	<g>
		<path d="M47.034,94.036c-25.901,0.006-46.411-20.76-47.02-45.799C-0.629,21.771,20.429,0.614,45.821,0.019
			c26.496-0.623,47.562,20.457,48.205,45.75C94.697,72.179,73.479,94.054,47.034,94.036z M46.999,86.86
			c21.904-0.047,39.565-17.57,39.84-39.301C87.12,25.299,69.32,7.347,47.307,7.201C25.07,7.052,7.283,24.905,7.194,46.832
			C7.104,68.958,24.98,86.86,46.999,86.86z"/>
		<path d="M65.132,57.784c0-0.348,0-0.645,0-0.943c0-4.79,0.001-9.579-0.001-14.372c-0.001-2.252-1.5-3.865-3.593-3.881
			c-2.138-0.014-3.686,1.586-3.706,3.865c-0.017,1.977,0.008,3.955-0.006,5.932c-0.041,5.477-4.354,10.213-9.664,10.62
			c-5.87,0.455-10.896-3.256-11.756-8.881c-0.312-2.033-0.149-4.143-0.208-6.219c-0.021-0.756,0.027-1.527-0.093-2.27
			c-0.321-1.992-1.956-3.207-3.978-3.033c-1.785,0.152-3.22,1.736-3.226,3.625c-0.014,4.869-0.005,9.735-0.005,14.604
			c0,0.297,0,0.597,0,0.947c-2.421,0-4.765,0-7.175,0c-0.016-0.266-0.043-0.512-0.043-0.76c-0.002-4.74-0.018-9.482,0.002-14.223
			c0.021-4.895,2.112-8.574,6.653-10.566c7.052-3.094,15.009,2.191,15.013,9.885c0.001,1.951-0.018,3.904,0.006,5.857
			c0.025,1.963,1.145,3.418,2.869,3.799c2.345,0.52,4.416-1.191,4.452-3.713c0.029-1.977,0.006-3.955,0.008-5.934
			c0.006-5.621,4.427-10.385,9.965-10.738c5.752-0.367,10.762,3.611,11.565,9.201c0.094,0.65,0.133,1.313,0.134,1.969
			c0.011,4.818,0.006,9.637,0.004,14.452c0,0.248-0.024,0.492-0.04,0.775C69.904,57.784,67.562,57.784,65.132,57.784z"/>
	</g>
</g>
</svg>